# This file uses centimeters as units for non-parametric coordinates.

mtllib laptop-display_trianguliert.mtl
g default
v -1.673981 7.110120 -1.207770
v -1.339185 7.110120 -1.207770
v -1.004389 7.110120 -1.207770
v -0.669593 7.110120 -1.207770
v -0.334796 7.110120 -1.207770
v 0.000000 7.110120 -1.207770
v 0.334796 7.110120 -1.207770
v 0.669593 7.110120 -1.207770
v 1.004389 7.110120 -1.207770
v 1.339185 7.110120 -1.207770
v 1.673981 7.110120 -1.207770
v -1.673981 7.380155 -1.288044
v -1.339185 7.380155 -1.288044
v -1.004389 7.380155 -1.288044
v -0.669593 7.380155 -1.288044
v -0.334796 7.380155 -1.288044
v 0.000000 7.380155 -1.288044
v 0.334796 7.380155 -1.288044
v 0.669593 7.380155 -1.288044
v 1.004389 7.380155 -1.288044
v 1.339185 7.380155 -1.288044
v 1.673981 7.380155 -1.288044
v -1.673981 7.595465 -1.352051
v -1.339185 7.595465 -1.352051
v -1.004389 7.595465 -1.352051
v -0.669593 7.595465 -1.352051
v -0.334796 7.595465 -1.352051
v 0.000000 7.595465 -1.352051
v 0.334796 7.595465 -1.352051
v 0.669593 7.595465 -1.352051
v 1.004389 7.595465 -1.352051
v 1.339185 7.595465 -1.352051
v 1.673981 7.595465 -1.352051
v -1.673981 7.810776 -1.416057
v -1.339185 7.810776 -1.416057
v -1.004389 7.810776 -1.416057
v -0.669593 7.810776 -1.416057
v -0.334796 7.810776 -1.416057
v 0.000000 7.810776 -1.416057
v 0.334796 7.810776 -1.416057
v 0.669593 7.810776 -1.416057
v 1.004389 7.810776 -1.416057
v 1.339185 7.810776 -1.416057
v 1.673981 7.810776 -1.416057
v -1.673981 8.026087 -1.480064
v -1.339185 8.026087 -1.480064
v -1.004389 8.026087 -1.480064
v -0.669593 8.026087 -1.480064
v -0.334796 8.026087 -1.480064
v 0.000000 8.026087 -1.480064
v 0.334796 8.026087 -1.480064
v 0.669593 8.026087 -1.480064
v 1.004389 8.026087 -1.480064
v 1.339185 8.026087 -1.480064
v 1.673981 8.026087 -1.480064
v -1.673981 8.241398 -1.544071
v -1.339185 8.241398 -1.544071
v -1.004389 8.241398 -1.544071
v -0.669593 8.241398 -1.544071
v -0.334796 8.241398 -1.544071
v 0.000000 8.241398 -1.544071
v 0.334796 8.241398 -1.544071
v 0.669593 8.241398 -1.544071
v 1.004389 8.241398 -1.544071
v 1.339185 8.241398 -1.544071
v 1.673981 8.241398 -1.544071
v -1.673981 8.456709 -1.608077
v -1.339185 8.456709 -1.608077
v -1.004389 8.456709 -1.608077
v -0.669593 8.456709 -1.608077
v -0.334796 8.456709 -1.608077
v 0.000000 8.456709 -1.608077
v 0.334796 8.456709 -1.608077
v 0.669593 8.456709 -1.608077
v 1.004389 8.456709 -1.608077
v 1.339185 8.456709 -1.608077
v 1.673981 8.456709 -1.608077
v -1.673981 8.672019 -1.672084
v -1.339185 8.672019 -1.672084
v -1.004389 8.672019 -1.672084
v -0.669593 8.672019 -1.672084
v -0.334796 8.672019 -1.672084
v 0.000000 8.672019 -1.672084
v 0.334796 8.672019 -1.672084
v 0.669593 8.672019 -1.672084
v 1.004389 8.672019 -1.672084
v 1.339185 8.672019 -1.672084
v 1.673981 8.672019 -1.672084
v -1.673981 8.887330 -1.736090
v -1.339185 8.887330 -1.736090
v -1.004389 8.887330 -1.736090
v -0.669593 8.887330 -1.736090
v -0.334796 8.887330 -1.736090
v 0.000000 8.887330 -1.736090
v 0.334796 8.887330 -1.736090
v 0.669593 8.887330 -1.736090
v 1.004389 8.887330 -1.736090
v 1.339185 8.887330 -1.736090
v 1.673981 8.887330 -1.736090
v -1.673981 9.102641 -1.800097
v -1.339185 9.102641 -1.800097
v -1.004389 9.102641 -1.800097
v -0.669593 9.102641 -1.800097
v -0.334796 9.102641 -1.800097
v 0.000000 9.102641 -1.800097
v 0.334796 9.102641 -1.800097
v 0.669593 9.102641 -1.800097
v 1.004389 9.102641 -1.800097
v 1.339185 9.102641 -1.800097
v 1.673981 9.102641 -1.800097
v -1.665815 9.334452 -1.871120
v -1.339185 9.341553 -1.871120
v -1.004389 9.341553 -1.871120
v -0.669593 9.341553 -1.871120
v -0.334796 9.341553 -1.871120
v 0.000000 9.341553 -1.871120
v 0.334796 9.341553 -1.871120
v 0.669593 9.341553 -1.871120
v 1.004389 9.341553 -1.871120
v 1.339185 9.341553 -1.871120
v 1.665815 9.334452 -1.871120
v -1.673981 9.324631 -1.866089
v -1.339185 9.324631 -1.866089
v -1.004389 9.324631 -1.866089
v -0.669593 9.324631 -1.866089
v -0.334796 9.324631 -1.866089
v 0.000000 9.324631 -1.866089
v 0.334796 9.324631 -1.866089
v 0.669593 9.324631 -1.866089
v 1.004389 9.324631 -1.866089
v 1.339185 9.324631 -1.866089
v 1.673981 9.324631 -1.866089
v 1.654869 7.110120 -1.207770
v 1.654869 7.380155 -1.288044
v 1.654869 7.595465 -1.352051
v 1.654869 7.810776 -1.416057
v 1.654869 8.026087 -1.480064
v 1.654869 8.241398 -1.544071
v 1.654869 8.456709 -1.608077
v 1.654869 8.672019 -1.672084
v 1.654869 8.887330 -1.736090
v 1.654869 9.102641 -1.800097
v 1.654869 9.324631 -1.866089
v 1.654869 9.341553 -1.871120
v -1.654869 7.110120 -1.207770
v -1.654869 7.380155 -1.288044
v -1.654869 7.595465 -1.352051
v -1.654869 7.810776 -1.416057
v -1.654869 8.026087 -1.480064
v -1.654869 8.241398 -1.544071
v -1.654869 8.456709 -1.608077
v -1.654869 8.672019 -1.672084
v -1.654869 8.887330 -1.736090
v -1.654869 9.102641 -1.800097
v -1.654869 9.324631 -1.866089
v -1.654869 9.341553 -1.871120
vt 0.000000 0.000000
vt 0.100000 0.000000
vt 0.200000 0.000000
vt 0.300000 0.000000
vt 0.400000 0.000000
vt 0.500000 0.000000
vt 0.600000 0.000000
vt 0.700000 0.000000
vt 0.800000 0.000000
vt 0.900000 0.000000
vt 1.000000 0.000000
vt 0.000000 0.100000
vt 0.100000 0.100000
vt 0.200000 0.100000
vt 0.300000 0.100000
vt 0.400000 0.100000
vt 0.500000 0.100000
vt 0.600000 0.100000
vt 0.700000 0.100000
vt 0.800000 0.100000
vt 0.900000 0.100000
vt 1.000000 0.100000
vt 0.000000 0.200000
vt 0.100000 0.200000
vt 0.200000 0.200000
vt 0.300000 0.200000
vt 0.400000 0.200000
vt 0.500000 0.200000
vt 0.600000 0.200000
vt 0.700000 0.200000
vt 0.800000 0.200000
vt 0.900000 0.200000
vt 1.000000 0.200000
vt 0.000000 0.300000
vt 0.100000 0.300000
vt 0.200000 0.300000
vt 0.300000 0.300000
vt 0.400000 0.300000
vt 0.500000 0.300000
vt 0.600000 0.300000
vt 0.700000 0.300000
vt 0.800000 0.300000
vt 0.900000 0.300000
vt 1.000000 0.300000
vt 0.000000 0.400000
vt 0.100000 0.400000
vt 0.200000 0.400000
vt 0.300000 0.400000
vt 0.400000 0.400000
vt 0.500000 0.400000
vt 0.600000 0.400000
vt 0.700000 0.400000
vt 0.800000 0.400000
vt 0.900000 0.400000
vt 1.000000 0.400000
vt 0.000000 0.500000
vt 0.100000 0.500000
vt 0.200000 0.500000
vt 0.300000 0.500000
vt 0.400000 0.500000
vt 0.500000 0.500000
vt 0.600000 0.500000
vt 0.700000 0.500000
vt 0.800000 0.500000
vt 0.900000 0.500000
vt 1.000000 0.500000
vt 0.000000 0.600000
vt 0.100000 0.600000
vt 0.200000 0.600000
vt 0.300000 0.600000
vt 0.400000 0.600000
vt 0.500000 0.600000
vt 0.600000 0.600000
vt 0.700000 0.600000
vt 0.800000 0.600000
vt 0.900000 0.600000
vt 1.000000 0.600000
vt 0.000000 0.700000
vt 0.100000 0.700000
vt 0.200000 0.700000
vt 0.300000 0.700000
vt 0.400000 0.700000
vt 0.500000 0.700000
vt 0.600000 0.700000
vt 0.700000 0.700000
vt 0.800000 0.700000
vt 0.900000 0.700000
vt 1.000000 0.700000
vt 0.000000 0.800000
vt 0.100000 0.800000
vt 0.200000 0.800000
vt 0.300000 0.800000
vt 0.400000 0.800000
vt 0.500000 0.800000
vt 0.600000 0.800000
vt 0.700000 0.800000
vt 0.800000 0.800000
vt 0.900000 0.800000
vt 1.000000 0.800000
vt 0.000000 0.900000
vt 0.100000 0.900000
vt 0.200000 0.900000
vt 0.300000 0.900000
vt 0.400000 0.900000
vt 0.500000 0.900000
vt 0.600000 0.900000
vt 0.700000 0.900000
vt 0.800000 0.900000
vt 0.900000 0.900000
vt 1.000000 0.900000
vt 0.000000 1.000000
vt 0.100000 1.000000
vt 0.200000 1.000000
vt 0.300000 1.000000
vt 0.400000 1.000000
vt 0.500000 1.000000
vt 0.600000 1.000000
vt 0.700000 1.000000
vt 0.800000 1.000000
vt 0.900000 1.000000
vt 1.000000 1.000000
vt 0.000000 0.992917
vt 0.100000 0.992917
vt 0.200000 0.992917
vt 0.300000 0.992917
vt 0.400000 0.992917
vt 0.500000 0.992917
vt 0.600000 0.992917
vt 0.700000 0.992917
vt 0.800000 0.992917
vt 0.900000 0.992917
vt 1.000000 0.992917
vt 0.994291 0.000000
vt 0.994291 0.100000
vt 0.994291 0.200000
vt 0.994291 0.300000
vt 0.994291 0.400000
vt 0.994291 0.500000
vt 0.994291 0.600000
vt 0.994291 0.700000
vt 0.994291 0.800000
vt 0.994291 0.900000
vt 0.994291 0.992917
vt 0.994291 1.000000
vt 0.005709 0.000000
vt 0.005709 0.100000
vt 0.005709 0.200000
vt 0.005709 0.300000
vt 0.005709 0.400000
vt 0.005709 0.500000
vt 0.005709 0.600000
vt 0.005709 0.700000
vt 0.005709 0.800000
vt 0.005709 0.900000
vt 0.005709 0.992917
vt 0.005709 1.000000
vn 0.000000 0.284951 0.958542
vn 0.000000 0.284951 0.958542
vn 0.000000 0.284951 0.958542
vn 0.000000 0.284951 0.958542
vn 0.000000 0.284951 0.958542
vn 0.000000 0.284951 0.958542
vn 0.000000 0.284951 0.958542
vn 0.000000 0.284951 0.958542
vn 0.000000 0.284951 0.958542
vn 0.000000 0.284951 0.958542
vn 0.000000 0.284951 0.958542
vn 0.000000 0.284951 0.958542
vn -0.000000 0.284951 0.958542
vn -0.000000 0.284951 0.958542
vn -0.000000 0.284951 0.958542
vn 0.000000 0.284951 0.958542
vn 0.000000 0.284951 0.958542
vn 0.000000 0.284951 0.958542
vn 0.000000 0.284951 0.958542
vn 0.000000 0.284951 0.958542
vn 0.000000 0.284951 0.958542
vn 0.000000 0.284951 0.958542
vn 0.000000 0.284951 0.958542
vn 0.000000 0.284951 0.958542
vn 0.000000 0.284951 0.958542
vn 0.000000 0.284951 0.958542
vn 0.000000 0.284951 0.958542
vn 0.000000 0.284951 0.958542
vn 0.000000 0.284951 0.958542
vn 0.000000 0.284951 0.958542
vn 0.000000 0.284951 0.958542
vn 0.000000 0.284951 0.958542
vn 0.000000 0.284951 0.958542
vn 0.000000 0.284951 0.958542
vn 0.000000 0.284951 0.958542
vn 0.000000 0.284951 0.958542
vn 0.000000 0.284951 0.958542
vn 0.000000 0.284951 0.958542
vn 0.000000 0.284951 0.958542
vn 0.000000 0.284951 0.958542
vn 0.000000 0.284951 0.958542
vn 0.000000 0.284951 0.958542
vn 0.000000 0.284951 0.958542
vn 0.000000 0.284951 0.958542
vn 0.000000 0.284951 0.958542
vn 0.000000 0.284951 0.958542
vn 0.000000 0.284951 0.958542
vn 0.000000 0.284951 0.958542
vn 0.000000 0.284951 0.958542
vn 0.000000 0.284951 0.958542
vn 0.000000 0.284951 0.958542
vn 0.000000 0.284951 0.958542
vn 0.000000 0.284951 0.958542
vn 0.000000 0.284951 0.958542
vn 0.000000 0.284951 0.958542
vn 0.000000 0.284951 0.958542
vn 0.000000 0.284951 0.958542
vn 0.000000 0.284951 0.958542
vn 0.000000 0.284951 0.958542
vn 0.000000 0.284951 0.958542
vn 0.000000 0.284951 0.958542
vn 0.000000 0.284951 0.958542
vn 0.000000 0.284951 0.958542
vn 0.000000 0.284951 0.958542
vn 0.000000 0.284951 0.958542
vn 0.000000 0.284951 0.958542
vn 0.000000 0.284951 0.958542
vn 0.000000 0.284951 0.958542
vn 0.000000 0.284951 0.958542
vn 0.000000 0.284951 0.958542
vn 0.000000 0.284951 0.958542
vn 0.000000 0.284951 0.958542
vn 0.000000 0.284951 0.958542
vn 0.000000 0.284951 0.958542
vn 0.000000 0.284951 0.958542
vn 0.000000 0.284951 0.958542
vn 0.000000 0.284951 0.958542
vn 0.000000 0.284951 0.958542
vn 0.000000 0.284951 0.958542
vn 0.000000 0.284951 0.958542
vn 0.000000 0.284951 0.958542
vn 0.000000 0.284951 0.958542
vn 0.000000 0.284951 0.958542
vn 0.000000 0.284951 0.958542
vn 0.000000 0.284951 0.958542
vn 0.000000 0.284951 0.958542
vn 0.000000 0.284951 0.958542
vn 0.000000 0.284951 0.958542
vn 0.000000 0.284951 0.958542
vn 0.000000 0.284951 0.958542
vn 0.000000 0.284951 0.958542
vn 0.000000 0.284951 0.958542
vn 0.000000 0.284951 0.958542
vn 0.000000 0.284951 0.958542
vn 0.000000 0.284951 0.958542
vn 0.000000 0.284951 0.958542
vn 0.000000 0.284951 0.958542
vn 0.000000 0.284951 0.958542
vn 0.000000 0.284951 0.958542
vn 0.000000 0.284951 0.958542
vn 0.000000 0.284951 0.958542
vn 0.000000 0.284951 0.958542
vn 0.000000 0.284951 0.958542
vn 0.000000 0.284951 0.958542
vn 0.000000 0.284951 0.958542
vn 0.000000 0.284951 0.958542
vn 0.000000 0.284951 0.958542
vn 0.000000 0.284951 0.958542
vn 0.000000 0.284951 0.958542
vn 0.000000 0.284951 0.958542
vn 0.000000 0.284951 0.958542
vn 0.000000 0.284951 0.958542
vn 0.000000 0.284951 0.958542
vn 0.000000 0.284951 0.958542
vn 0.000000 0.284951 0.958542
vn 0.000000 0.284951 0.958542
vn 0.000000 0.284951 0.958542
vn 0.000000 0.284951 0.958542
vn 0.000000 0.284951 0.958542
vn 0.000000 0.284951 0.958542
vn 0.000000 0.290798 0.956784
vn -0.000184 0.285238 0.958457
vn -0.108994 0.354266 0.928771
vn -0.003614 0.284949 0.958536
vn 0.000000 0.284951 0.958542
vn 0.000000 0.284951 0.958542
vn 0.000000 0.284951 0.958542
vn 0.000000 0.284951 0.958542
vn 0.000000 0.284951 0.958542
vn 0.000000 0.284951 0.958542
vn 0.000000 0.284951 0.958542
vn 0.000000 0.284951 0.958542
vn 0.000000 0.284951 0.958542
vn 0.000000 0.284951 0.958542
vn 0.000000 0.284951 0.958542
vn 0.000000 0.284951 0.958542
vn 0.000000 0.284951 0.958542
vn 0.000000 0.284951 0.958542
vn 0.000000 0.284951 0.958542
vn 0.000000 0.284951 0.958542
vn 0.000000 0.284951 0.958542
vn 0.000000 0.284951 0.958542
vn 0.000184 0.285238 0.958457
vn 0.003614 0.284949 0.958536
vn 0.000000 0.284951 0.958542
vn 0.000000 0.284951 0.958542
vn 0.000000 0.284951 0.958542
vn 0.000000 0.284951 0.958542
vn 0.000000 0.284951 0.958542
vn 0.000000 0.284951 0.958542
vn 0.000000 0.284951 0.958542
vn 0.000000 0.284951 0.958542
vn 0.000000 0.284951 0.958542
vn 0.000000 0.284951 0.958542
vn 0.000000 0.290798 0.956784
vn 0.108996 0.354266 0.928771
s 1
g laptop_display laptop
usemtl initialShadingGroup
f 1/1/1 145/145/2 12/12/3
f 12/12/3 145/145/2 146/146/4
f 2/2/5 3/3/6 13/13/7
f 13/13/7 3/3/6 14/14/8
f 3/3/6 4/4/9 14/14/8
f 14/14/8 4/4/9 15/15/10
f 4/4/9 5/5/11 15/15/10
f 15/15/10 5/5/11 16/16/12
f 5/5/11 6/6/13 16/16/12
f 16/16/12 6/6/13 17/17/14
f 6/6/13 7/7/15 17/17/14
f 17/17/14 7/7/15 18/18/16
f 7/7/15 8/8/17 18/18/16
f 18/18/16 8/8/17 19/19/18
f 8/8/17 9/9/19 19/19/18
f 19/19/18 9/9/19 20/20/20
f 9/9/19 10/10/21 20/20/20
f 20/20/20 10/10/21 21/21/22
f 10/10/21 133/133/23 21/21/22
f 21/21/22 133/133/23 134/134/24
f 12/12/3 146/146/4 23/23/25
f 23/23/25 146/146/4 147/147/26
f 13/13/7 14/14/8 24/24/27
f 24/24/27 14/14/8 25/25/28
f 14/14/8 15/15/10 25/25/28
f 25/25/28 15/15/10 26/26/29
f 15/15/10 16/16/12 26/26/29
f 26/26/29 16/16/12 27/27/30
f 16/16/12 17/17/14 27/27/30
f 27/27/30 17/17/14 28/28/31
f 17/17/14 18/18/16 28/28/31
f 28/28/31 18/18/16 29/29/32
f 18/18/16 19/19/18 29/29/32
f 29/29/32 19/19/18 30/30/33
f 19/19/18 20/20/20 30/30/33
f 30/30/33 20/20/20 31/31/34
f 20/20/20 21/21/22 31/31/34
f 31/31/34 21/21/22 32/32/35
f 21/21/22 134/134/24 32/32/35
f 32/32/35 134/134/24 135/135/36
f 23/23/25 147/147/26 34/34/37
f 34/34/37 147/147/26 148/148/38
f 24/24/27 25/25/28 35/35/39
f 35/35/39 25/25/28 36/36/40
f 25/25/28 26/26/29 36/36/40
f 36/36/40 26/26/29 37/37/41
f 26/26/29 27/27/30 37/37/41
f 37/37/41 27/27/30 38/38/42
f 27/27/30 28/28/31 38/38/42
f 38/38/42 28/28/31 39/39/43
f 28/28/31 29/29/32 39/39/43
f 39/39/43 29/29/32 40/40/44
f 29/29/32 30/30/33 40/40/44
f 40/40/44 30/30/33 41/41/45
f 30/30/33 31/31/34 41/41/45
f 41/41/45 31/31/34 42/42/46
f 31/31/34 32/32/35 42/42/46
f 42/42/46 32/32/35 43/43/47
f 32/32/35 135/135/36 43/43/47
f 43/43/47 135/135/36 136/136/48
f 34/34/37 148/148/38 45/45/49
f 45/45/49 148/148/38 149/149/50
f 35/35/39 36/36/40 46/46/51
f 46/46/51 36/36/40 47/47/52
f 36/36/40 37/37/41 47/47/52
f 47/47/52 37/37/41 48/48/53
f 37/37/41 38/38/42 48/48/53
f 48/48/53 38/38/42 49/49/54
f 38/38/42 39/39/43 49/49/54
f 49/49/54 39/39/43 50/50/55
f 39/39/43 40/40/44 50/50/55
f 50/50/55 40/40/44 51/51/56
f 40/40/44 41/41/45 51/51/56
f 51/51/56 41/41/45 52/52/57
f 41/41/45 42/42/46 52/52/57
f 52/52/57 42/42/46 53/53/58
f 42/42/46 43/43/47 53/53/58
f 53/53/58 43/43/47 54/54/59
f 43/43/47 136/136/48 54/54/59
f 54/54/59 136/136/48 137/137/60
f 45/45/49 149/149/50 56/56/61
f 56/56/61 149/149/50 150/150/62
f 46/46/51 47/47/52 57/57/63
f 57/57/63 47/47/52 58/58/64
f 47/47/52 48/48/53 58/58/64
f 58/58/64 48/48/53 59/59/65
f 48/48/53 49/49/54 59/59/65
f 59/59/65 49/49/54 60/60/66
f 49/49/54 50/50/55 60/60/66
f 60/60/66 50/50/55 61/61/67
f 50/50/55 51/51/56 61/61/67
f 61/61/67 51/51/56 62/62/68
f 51/51/56 52/52/57 62/62/68
f 62/62/68 52/52/57 63/63/69
f 52/52/57 53/53/58 63/63/69
f 63/63/69 53/53/58 64/64/70
f 53/53/58 54/54/59 64/64/70
f 64/64/70 54/54/59 65/65/71
f 54/54/59 137/137/60 65/65/71
f 65/65/71 137/137/60 138/138/72
f 56/56/61 150/150/62 67/67/73
f 67/67/73 150/150/62 151/151/74
f 57/57/63 58/58/64 68/68/75
f 68/68/75 58/58/64 69/69/76
f 58/58/64 59/59/65 69/69/76
f 69/69/76 59/59/65 70/70/77
f 59/59/65 60/60/66 70/70/77
f 70/70/77 60/60/66 71/71/78
f 60/60/66 61/61/67 71/71/78
f 71/71/78 61/61/67 72/72/79
f 61/61/67 62/62/68 72/72/79
f 72/72/79 62/62/68 73/73/80
f 62/62/68 63/63/69 73/73/80
f 73/73/80 63/63/69 74/74/81
f 63/63/69 64/64/70 74/74/81
f 74/74/81 64/64/70 75/75/82
f 64/64/70 65/65/71 75/75/82
f 75/75/82 65/65/71 76/76/83
f 65/65/71 138/138/72 76/76/83
f 76/76/83 138/138/72 139/139/84
f 67/67/73 151/151/74 78/78/85
f 78/78/85 151/151/74 152/152/86
f 68/68/75 69/69/76 79/79/87
f 79/79/87 69/69/76 80/80/88
f 69/69/76 70/70/77 80/80/88
f 80/80/88 70/70/77 81/81/89
f 70/70/77 71/71/78 81/81/89
f 81/81/89 71/71/78 82/82/90
f 71/71/78 72/72/79 82/82/90
f 82/82/90 72/72/79 83/83/91
f 72/72/79 73/73/80 83/83/91
f 83/83/91 73/73/80 84/84/92
f 73/73/80 74/74/81 84/84/92
f 84/84/92 74/74/81 85/85/93
f 74/74/81 75/75/82 85/85/93
f 85/85/93 75/75/82 86/86/94
f 75/75/82 76/76/83 86/86/94
f 86/86/94 76/76/83 87/87/95
f 76/76/83 139/139/84 87/87/95
f 87/87/95 139/139/84 140/140/96
f 78/78/85 152/152/86 89/89/97
f 89/89/97 152/152/86 153/153/98
f 79/79/87 80/80/88 90/90/99
f 90/90/99 80/80/88 91/91/100
f 80/80/88 81/81/89 91/91/100
f 91/91/100 81/81/89 92/92/101
f 81/81/89 82/82/90 92/92/101
f 92/92/101 82/82/90 93/93/102
f 82/82/90 83/83/91 93/93/102
f 93/93/102 83/83/91 94/94/103
f 83/83/91 84/84/92 94/94/103
f 94/94/103 84/84/92 95/95/104
f 84/84/92 85/85/93 95/95/104
f 95/95/104 85/85/93 96/96/105
f 85/85/93 86/86/94 96/96/105
f 96/96/105 86/86/94 97/97/106
f 86/86/94 87/87/95 97/97/106
f 97/97/106 87/87/95 98/98/107
f 87/87/95 140/140/96 98/98/107
f 98/98/107 140/140/96 141/141/108
f 89/89/97 153/153/98 100/100/109
f 100/100/109 153/153/98 154/154/110
f 90/90/99 91/91/100 101/101/111
f 101/101/111 91/91/100 102/102/112
f 91/91/100 92/92/101 102/102/112
f 102/102/112 92/92/101 103/103/113
f 92/92/101 93/93/102 103/103/113
f 103/103/113 93/93/102 104/104/114
f 93/93/102 94/94/103 104/104/114
f 104/104/114 94/94/103 105/105/115
f 94/94/103 95/95/104 105/105/115
f 105/105/115 95/95/104 106/106/116
f 95/95/104 96/96/105 106/106/116
f 106/106/116 96/96/105 107/107/117
f 96/96/105 97/97/106 107/107/117
f 107/107/117 97/97/106 108/108/118
f 97/97/106 98/98/107 108/108/118
f 108/108/118 98/98/107 109/109/119
f 98/98/107 141/141/108 109/109/119
f 109/109/119 141/141/108 142/142/120
f 122/122/121 155/155/122 111/111/123
f 111/111/123 155/155/122 156/156/124
f 123/123/125 124/124/126 112/112/127
f 112/112/127 124/124/126 113/113/128
f 124/124/126 125/125/129 113/113/128
f 113/113/128 125/125/129 114/114/130
f 125/125/129 126/126/131 114/114/130
f 114/114/130 126/126/131 115/115/132
f 126/126/131 127/127/133 115/115/132
f 115/115/132 127/127/133 116/116/134
f 127/127/133 128/128/135 116/116/134
f 116/116/134 128/128/135 117/117/136
f 128/128/135 129/129/137 117/117/136
f 117/117/136 129/129/137 118/118/138
f 129/129/137 130/130/139 118/118/138
f 118/118/138 130/130/139 119/119/140
f 130/130/139 131/131/141 119/119/140
f 119/119/140 131/131/141 120/120/142
f 131/131/141 143/143/143 120/120/142
f 120/120/142 143/143/143 144/144/144
f 100/100/109 154/154/110 122/122/121
f 122/122/121 154/154/110 155/155/122
f 101/101/111 102/102/112 123/123/125
f 123/123/125 102/102/112 124/124/126
f 102/102/112 103/103/113 124/124/126
f 124/124/126 103/103/113 125/125/129
f 103/103/113 104/104/114 125/125/129
f 125/125/129 104/104/114 126/126/131
f 104/104/114 105/105/115 126/126/131
f 126/126/131 105/105/115 127/127/133
f 105/105/115 106/106/116 127/127/133
f 127/127/133 106/106/116 128/128/135
f 106/106/116 107/107/117 128/128/135
f 128/128/135 107/107/117 129/129/137
f 107/107/117 108/108/118 129/129/137
f 129/129/137 108/108/118 130/130/139
f 108/108/118 109/109/119 130/130/139
f 130/130/139 109/109/119 131/131/141
f 109/109/119 142/142/120 131/131/141
f 131/131/141 142/142/120 143/143/143
f 134/134/24 133/133/23 22/22/145
f 22/22/145 133/133/23 11/11/146
f 135/135/36 134/134/24 33/33/147
f 33/33/147 134/134/24 22/22/145
f 136/136/48 135/135/36 44/44/148
f 44/44/148 135/135/36 33/33/147
f 137/137/60 136/136/48 55/55/149
f 55/55/149 136/136/48 44/44/148
f 138/138/72 137/137/60 66/66/150
f 66/66/150 137/137/60 55/55/149
f 139/139/84 138/138/72 77/77/151
f 77/77/151 138/138/72 66/66/150
f 140/140/96 139/139/84 88/88/152
f 88/88/152 139/139/84 77/77/151
f 141/141/108 140/140/96 99/99/153
f 99/99/153 140/140/96 88/88/152
f 142/142/120 141/141/108 110/110/154
f 110/110/154 141/141/108 99/99/153
f 143/143/143 142/142/120 132/132/155
f 132/132/155 142/142/120 110/110/154
f 144/144/144 143/143/143 121/121/156
f 121/121/156 143/143/143 132/132/155
f 146/146/4 145/145/2 13/13/7
f 13/13/7 145/145/2 2/2/5
f 147/147/26 146/146/4 24/24/27
f 24/24/27 146/146/4 13/13/7
f 148/148/38 147/147/26 35/35/39
f 35/35/39 147/147/26 24/24/27
f 149/149/50 148/148/38 46/46/51
f 46/46/51 148/148/38 35/35/39
f 150/150/62 149/149/50 57/57/63
f 57/57/63 149/149/50 46/46/51
f 151/151/74 150/150/62 68/68/75
f 68/68/75 150/150/62 57/57/63
f 152/152/86 151/151/74 79/79/87
f 79/79/87 151/151/74 68/68/75
f 153/153/98 152/152/86 90/90/99
f 90/90/99 152/152/86 79/79/87
f 154/154/110 153/153/98 101/101/111
f 101/101/111 153/153/98 90/90/99
f 155/155/122 154/154/110 123/123/125
f 123/123/125 154/154/110 101/101/111
f 156/156/124 155/155/122 112/112/127
f 112/112/127 155/155/122 123/123/125
